<?xml version="1.0" encoding="UTF-8"?>
<svg width="1200pt" height="1200pt" version="1.1" viewBox="0 0 1200 1200" xmlns="http://www.w3.org/2000/svg">
 <path d="m1018.8 466.8-414-196.8c-3.6016-1.1992-7.1992-1.1992-10.801 0l-412.8 196.8c-3.6016 2.3984-7.1992 6-7.1992 10.801 0 4.8008 2.3984 8.3984 7.1992 10.801l144 68.398v129.6c0 90 121.2 160.8 274.8 160.8 76.801 0 145.2-18 195.6-48v50.398c-16.801 4.8008-30 21.602-30 39.602 0 22.801 19.199 42 42 42 22.801 0 42-19.199 42-42 0-19.199-13.199-34.801-30-39.602v-66c34.801-26.398 55.199-60 55.199-96v-129.6l144-68.398c3.6016-2.3984 7.1992-6 7.1992-10.801s-2.3984-9.6016-7.1992-12zm-193.2 422.4c0 9.6016-8.3984 18-18 18-9.6016 0-18-8.3984-18-18 0-9.6016 8.3984-18 18-18 9.5977 0 18 8.4023 18 18zm-230.4-204c1.1992 1.1992 3.6016 1.1992 4.8008 1.1992s3.6016 0 4.8008-1.1992l190.8-90v128.4c-46.801 31.199-117.6 52.801-195.6 52.801-138 0-250.8-61.199-250.8-136.8v-69.602zm4.8008 138c-123.6 0-225.6-49.199-247.2-112.8 44.398 52.801 136.8 88.801 247.2 88.801 76.801 0 145.2-18 195.6-48v19.199c-46.801 32.402-117.6 52.801-195.6 52.801zm219.6-72v-16.801c10.801-8.3984 19.199-16.801 27.602-26.398-4.8047 15.602-14.402 30-27.602 43.199zm31.199-112.8c0 22.801-10.801 45.602-31.199 64.801v-120l31.199-14.398zm-43.199-75.598-201.6-100.8c-6-2.3984-13.199 0-15.602 6-2.3984 6 0 13.199 6 15.602l183.6 92.398-180 85.199-386.4-183.6 386.4-183.6 386.4 183.6z"/>
</svg>
