<?xml version="1.0" encoding="UTF-8"?>
<svg width="1200pt" height="1200pt" version="1.1" viewBox="0 0 1200 1200" xmlns="http://www.w3.org/2000/svg">
 <path d="m199.36 1130.6c-6.7969 0-12.328-5.5312-12.328-12.328v-155.76c0-6.7969 5.5312-12.328 12.328-12.328s12.328 5.5312 12.328 12.328v155.76c0 6.7969-5.5312 12.328-12.328 12.328z" fill-rule="evenodd"/>
 <path d="m654.47 1130.6c-6.7969 0-12.328-5.5312-12.328-12.328v-155.76c0-6.7969 5.4844-12.328 12.328-12.328s12.328 5.5312 12.328 12.328v155.76c0 6.7969-5.4844 12.328-12.328 12.328z" fill-rule="evenodd"/>
 <path d="m756.47 1130.6h-659.02c-19.828 0-35.953-16.125-35.953-35.953v-268.74c0-57.797 36.328-110.02 90.375-129.89 0.14062-0.046875 0.23438-0.09375 0.42188-0.14062l170.86-56.156v-61.453c0-6.7969 5.5312-12.328 12.328-12.328 6.8438 0 12.328 5.5312 12.328 12.328v70.406c0 5.3438-3.4219 10.078-8.4844 11.719l-179.16 58.875c-44.297 16.406-74.016 59.25-74.016 106.69v268.74c0 6.3281 4.9219 11.297 11.297 11.297h659.02c6.2344 0 11.297-4.9688 11.297-11.062v-268.97c0-47.156-29.766-90-74.062-106.69l-179.11-58.875c-5.0625-1.6406-8.4844-6.375-8.4844-11.719v-68.531c0-6.7969 5.5312-12.328 12.328-12.328s12.328 5.5312 12.328 12.328v59.578l170.9 56.156c0.14062 0.046875 0.32812 0.09375 0.46875 0.1875 54.047 20.25 90.328 72.422 90.328 129.89v268.92c0 19.688-16.125 35.719-35.953 35.719z" fill-rule="evenodd"/>
 <path d="m511.64 804.32c-5.5312 0-10.828-2.1562-15.094-6.2344l-77.531-74.062-90.75-65.438c-5.5312-3.9844-6.7969-11.672-2.8125-17.203s11.672-6.75 17.203-2.8125l91.453 65.953c0.46875 0.32812 0.89062 0.70312 1.3125 1.0781l75.938 72.516 80.297-109.92c3.9844-5.4844 11.719-6.7031 17.25-2.6719 5.4844 4.0312 6.7031 11.719 2.6719 17.25l-81.609 111.8c-4.2188 5.7188-10.031 9.0938-16.5 9.6562-0.60938 0.046875-1.2188 0.09375-1.875 0.09375z" fill-rule="evenodd"/>
 <path d="m342.24 804.56c-0.60938 0-1.2188-0.046875-1.8281-0.09375-6.4219-0.5625-12.281-3.9844-16.453-9.6094l-81.656-111.84c-4.0312-5.4844-2.8125-13.219 2.6719-17.25s13.219-2.8125 17.25 2.6719l80.25 109.92 75.984-72.562c0.375-0.375 0.84375-0.75 1.2656-1.0781l91.453-66.188c5.4844-3.9844 13.219-2.7656 17.203 2.7656s2.7656 13.219-2.7656 17.203l-90.75 65.672-77.484 74.016c-4.2656 4.0781-9.5625 6.2344-15.094 6.2344z" fill-rule="evenodd"/>
 <path d="m597.42 625.87h-78.797c-6.7969 0-12.328-5.5312-12.328-12.328s5.5312-12.328 12.328-12.328h78.797c21.703 0 39.328-16.266 39.328-36.328v-286.97c0-7.0312-0.75-14.344-2.2969-21.844-6.0469-30.281-29.531-53.812-59.906-60.094-2.3906-0.51562-4.5469-1.6875-6.2344-3.4219-90-90.891-181.45-74.438-242.34-44.625-25.219 12.375-47.953 29.297-67.547 50.203-26.625 28.828-41.344 66.375-41.344 105.7v261c0 20.016 17.672 36.328 39.328 36.328h79.031c6.8438 0 12.328 5.5312 12.328 12.328s-5.4844 12.328-12.328 12.328h-79.031c-35.297 0-63.984-27.375-63.984-60.984v-261c0-45.562 17.016-89.062 47.953-122.48 21.656-23.156 46.781-41.812 74.719-55.547 55.359-27.094 163.4-56.766 268.22 46.828 38.203 9.375 67.594 39.844 75.328 78.516 1.875 9.0469 2.8125 18.047 2.8125 26.719v286.97c0 33.609-28.688 60.984-64.031 60.984z" fill-rule="evenodd"/>
 <path d="m277.64 446.58c4.125 83.203 71.578 150.89 150.47 150.89 78.844 0 146.29-67.594 150.42-150.74v-100.92c-39.188-1.0781-64.078-28.172-75.609-44.672-92.156 64.078-189.66 54.422-227.48 47.297zm150.47 175.55c-44.953 0-87.984-18.609-121.22-52.453-32.531-33.094-51.656-76.453-53.859-122.06v-0.32812l-2.5781-114.14c-0.09375-3.9375 1.6875-7.6875 4.8281-10.078s7.1719-3.1406 10.969-2.0625c1.2188 0.375 124.97 34.922 232.74-47.531 2.9531-2.25 6.7031-3.0469 10.312-2.2031s6.6094 3.2344 8.25 6.5625c0.98438 1.9688 24.844 48.609 71.859 42.797 3.5156-0.42188 7.0312 0.65625 9.6562 3 2.6719 2.3438 4.1719 5.7188 4.1719 9.2344v114.75c-2.2031 45.609-21.328 88.969-53.859 122.06-33.234 33.844-76.266 52.453-121.22 52.453z" fill-rule="evenodd"/>
 <path d="m426.94 1130.6c-3.8438 0-7.6875-1.7812-10.078-5.2031l-198.56-279.24c-3.4688-4.875-2.9062-11.578 1.3125-15.844l39.281-39.469-64.266-92.344c-3.8906-5.5781-2.5312-13.266 3.0469-17.156s13.266-2.5312 17.156 3.0938l70.172 100.78c3.4219 4.875 2.8125 11.531-1.3594 15.75l-39.188 39.422 192.52 270.74c3.9375 5.5781 2.625 13.266-2.9062 17.203-2.1562 1.5469-4.6875 2.2969-7.125 2.2969z" fill-rule="evenodd"/>
 <path d="m426.94 1130.6c-2.4844 0-4.9688-0.75-7.125-2.2969-5.5312-3.9375-6.8438-11.625-2.9062-17.203l192.28-270.74-39.188-39.422c-4.2188-4.2188-4.7812-10.875-1.3594-15.75l70.172-100.78c3.8906-5.5781 11.578-6.9844 17.156-3.0938 5.5781 3.8906 6.9844 11.578 3.0938 17.156l-64.266 92.344 39.281 39.469c4.2188 4.2656 4.7812 10.922 1.3125 15.844l-198.32 279.24c-2.3906 3.375-6.1875 5.2031-10.078 5.2031z" fill-rule="evenodd"/>
 <path d="m426.94 1130.6c-6.7969 0-12.328-5.5312-12.328-12.328v-0.23438c0-0.65625 0.046875-1.3125 0.1875-1.9688l56.578-349.18c1.0781-6.7031 7.4062-11.297 14.156-10.219 6.7031 1.0781 11.297 7.4062 10.172 14.156l-56.484 348.42c-0.51562 6.3281-5.8125 11.344-12.281 11.344z" fill-rule="evenodd"/>
 <path d="m426.94 1130.6c-5.9531 0-11.203-4.3125-12.188-10.359l-56.625-349.4c-1.0781-6.7031 3.4688-13.031 10.219-14.156 6.7031-1.0781 13.078 3.4688 14.156 10.219l56.578 349.4c1.0781 6.7031-3.4688 13.078-10.219 14.156-0.65625 0.09375-1.3125 0.14062-1.9688 0.14062z" fill-rule="evenodd"/>
 <path d="m959.16 309.05c-5.25 0-10.266 1.3125-15.047 3.8906-10.453 5.6719-18.891 17.109-23.156 31.453-25.219 85.688-82.969 143.02-171.66 170.34-20.859 6.375-40.172 23.953-33.422 47.484 25.219 86.25 105.05 145.92 194.81 145.92h2.9531c108.84-1.5469 198.66-91.359 200.21-200.21 1.0781-90.141-58.359-171.28-144.61-197.34-3.4219-1.0312-6.7969-1.5469-10.078-1.5469zm-48.469 423.74c-100.64 0-190.22-66.891-218.48-163.74-9.6094-33.375 11.391-66.141 49.875-77.906 81.422-25.078 132.19-75.422 155.26-153.74 6.1406-20.578 18.891-37.406 35.062-46.172 13.547-7.3125 28.734-8.8125 43.922-4.2656 47.766 14.438 88.641 43.312 118.08 83.578 29.484 40.219 44.719 87.844 44.109 137.72-0.84375 59.344-24.609 115.31-66.891 157.64-42.281 42.281-98.297 66.047-157.6 66.891-1.0781 0-2.2031 0.046875-3.2812 0.046875z" fill-rule="evenodd"/>
 <path d="m934.64 603.42c-15.891 0-28.828 12.938-28.828 28.828s12.938 28.828 28.828 28.828 28.828-12.938 28.828-28.828-12.938-28.828-28.828-28.828zm0 82.312c-29.484 0-53.484-24-53.484-53.484s24-53.484 53.484-53.484 53.484 24 53.484 53.484-24 53.484-53.484 53.484z" fill-rule="evenodd"/>
 <path d="m1038 500.06c-15.891 0-28.828 12.938-28.828 28.828s12.938 28.828 28.828 28.828 28.828-12.938 28.828-28.828-12.938-28.828-28.828-28.828zm0 82.312c-29.484 0-53.484-24-53.484-53.484s24-53.484 53.484-53.484 53.484 24 53.484 53.484-24 53.484-53.484 53.484z" fill-rule="evenodd"/>
 <path d="m818.21 558.98c-15.891 0-28.828 12.938-28.828 28.828s12.938 28.828 28.828 28.828 28.828-12.938 28.828-28.828-12.938-28.828-28.828-28.828zm0 82.312c-29.484 0-53.531-24-53.531-53.484s24-53.484 53.484-53.484 53.484 24 53.484 53.484-24 53.484-53.484 53.484z" fill-rule="evenodd"/>
 <path d="m993.61 383.81c-15.891 0-28.828 12.938-28.828 28.828s12.938 28.828 28.828 28.828 28.828-12.938 28.828-28.828-12.938-28.828-28.828-28.828zm0 82.312c-29.484 0-53.531-24-53.531-53.484s24-53.484 53.484-53.484 53.484 24 53.484 53.484-24 53.484-53.484 53.484z" fill-rule="evenodd"/>
 <path d="m905.9 471.28c-15.891 0-28.828 12.938-28.828 28.828s12.938 28.828 28.828 28.828 28.828-12.938 28.828-28.828-12.938-28.828-28.828-28.828zm0 82.312c-29.484 0-53.484-24-53.484-53.484s24-53.484 53.484-53.484 53.484 24 53.484 53.484-24 53.484-53.484 53.484z" fill-rule="evenodd"/>
 <path d="m788.68 293.16c-1.3594 0-2.7188 0.09375-4.0781 0.28125-15.281 2.3438-26.672 15.75-26.344 31.266v0.09375c0.42188 27.562-12.375 53.25-24.422 71.203 23.016-4.5469 53.531-13.406 70.031-29.906 23.719-23.719 26.625-43.875 8.9062-61.594-7.5-7.5-15.609-11.297-24.047-11.297zm-83.906 131.86c-4.7812 0-9.1875-2.8125-11.203-7.2188-2.1562-4.6875-1.1719-10.219 2.4844-13.875 0.375-0.375 38.109-38.812 37.547-78.75-0.5625-27.797 19.781-51.938 47.438-56.156 17.906-2.5312 34.875 3.7031 49.172 17.953 13.172 13.172 38.672 48.938-8.9062 96.469-35.109 35.109-112.36 41.203-115.59 41.484-0.32812 0-0.60938 0.046875-0.9375 0.046875z" fill-rule="evenodd"/>
 <path d="m836.68 340.08c-3 0-6.0469-1.0781-8.4375-3.3281-4.9688-4.6406-5.2031-12.469-0.5625-17.438l195.52-208.82c3.4688-3.7031 3.4688-9.6094 0-13.266-1.7812-1.9219-4.2188-3-6.7969-3.0938-2.5312-0.09375-4.9688 0.84375-6.8438 2.6719l-206.81 193.45c-4.9688 4.6406-12.797 4.4062-17.438-0.5625-4.6406-4.9688-4.4062-12.797 0.5625-17.438l206.72-193.4c6.6562-6.2812 15.375-9.6094 24.516-9.3281s17.625 4.125 23.953 10.781c12.516 13.219 12.516 33.891 0 47.109l-195.47 208.78c-2.4375 2.5781-5.7188 3.8906-9 3.8906z" fill-rule="evenodd"/>
</svg>
