<?xml version="1.0" encoding="UTF-8"?>
<svg width="1200pt" height="1200pt" version="1.1" viewBox="0 0 1200 1200" xmlns="http://www.w3.org/2000/svg">
 <path d="m1131.7 644.53-7.6406-2.2969v-4.0781c0.1875-12.891-6.6094-24.844-17.719-31.359l-431.63-258.37 6-150.1 2.9531-74.297v0.046875c0.09375-3.2812-1.2188-6.4688-3.6562-8.625-2.4375-2.2031-5.7188-3.1875-9-2.7188l-619.4 90.188c-3 0.42188-5.6719 2.1094-7.4062 4.5469-1.7344 2.4844-2.3906 5.5781-1.8281 8.5312l78 383.86c1.2188 5.7656 6.6562 9.5625 12.469 8.7188l34.359-5.1094 320.34 479.06c0.28125 0.42188 0.60938 0.79688 0.9375 1.1719l0.1875 0.1875h-0.046875c0.42188 0.42188 0.84375 0.84375 1.2656 1.2188l0.28125 0.23438h0.046875c0.46875 0.32812 0.98438 0.65625 1.5469 0.9375l0.375 0.1875c0.51562 0.23438 1.0781 0.42188 1.5938 0.60938l0.23438 0.09375 0.046875-0.046875c0.60938 0.14062 1.2656 0.28125 1.9219 0.28125h0.79688c0.70312 0 1.3594-0.046875 2.0156-0.1875h0.1875c0.60938-0.09375 1.1719-0.28125 1.7344-0.51562l0.32812-0.14062 0.28125-0.09375 625.45-284.48c3.1875-1.4531 5.4844-4.2656 6.2344-7.6406l23.859-106.78c4.125-18.703-6.7969-37.453-25.125-43.031zm-29.719-6.375v31.734l-584.06 242.11h-0.09375l10.875-82.125 569.86-201.14c2.25 2.5781 3.4688 5.9531 3.4219 9.4219zm-924.94-165.84c0.375-4.2656 2.6719-8.1094 6.2344-10.5l323.76 363.47-10.172 76.922-318.52-402.66c-1.0312-1.3125-1.8281-2.7188-2.3906-4.3125l-0.5625-7.0781zm2.2031 63.891 304.5 385.08c2.6719 3.375 5.9062 6.2812 9.6094 8.5312l-5.8594 112.78-304.13-454.78zm895.55 77.484-552.84 195.1-314.39-352.92 54.609-10.781h-0.046875c2.4375 11.109 3.0469 22.594 1.8281 33.938-0.51562 3.1875 0.42188 6.4219 2.5312 8.8594 2.1094 2.4844 5.1562 3.8906 8.3906 3.8906h1.0312c55.5-4.6406 110.58-13.406 164.76-26.156 2.7188 11.766 3.4688 23.953 2.2031 36-0.51562 3.1875 0.42188 6.4219 2.5312 8.8594 2.0625 2.4375 5.1562 3.8438 8.3906 3.8438h1.0312c90.844-8.4844 163.6-22.453 216.14-41.531v0.046876c3.0938-1.125 5.4844-3.5625 6.6094-6.6094 1.125-3.0938 0.79688-6.5156-0.84375-9.375-14.203-27.609-24.094-57.234-29.203-87.891l13.828-2.7188zm-423.42-157.5c-60.562 18.047-122.81 29.719-185.81 34.875-0.46875-14.016-2.4844-27.938-6-41.531v-0.32812l-0.09375-0.1875c-7.8281-30-17.953-59.344-30.328-87.797 94.312-6.6094 156.79-15.891 189.61-28.266 4.9688 42.422 15.938 83.906 32.625 123.24zm-239.21-115.97c-3.6094 0.23438-6.8438 2.2031-8.7188 5.25-1.875 3.0938-2.1562 6.8906-0.70312 10.172 12.891 28.734 23.812 58.312 32.766 88.5-48.984 11.625-98.719 19.734-148.82 24.328-0.32812-12.984-2.1094-25.828-5.2031-38.391v-0.09375c-7.875-31.266-18.281-61.828-31.172-91.359 94.312-6.6094 156.79-15.891 189.61-28.266 1.4531 9.6094 3 18.797 4.6406 27.609-10.266 0.79688-21.047 1.5-32.391 2.25zm248.86-203.76-2.0625 51.703-582 86.906-10.594-52.031zm-579.71 160.31 576.74-86.156-5.3438 134.76-9.2812 1.8281c-1.7344-10.125-3.4219-20.766-4.9219-31.969h0.046875c-0.51562-3.6562-2.8594-6.8438-6.1875-8.4375s-7.2656-1.4531-10.406 0.46875c-14.391 8.5312-53.344 19.922-155.29 28.875-2.5312-13.5-4.875-28.078-6.9844-43.5h-0.046874c-0.51563-3.6562-2.8125-6.8438-6.1406-8.4375-3.3281-1.6406-7.2656-1.4531-10.453 0.42188-16.688 9.9375-66.609 23.719-209.76 32.953v0.046875c-3.5625 0.23438-6.8438 2.2031-8.7188 5.25-1.875 3.0938-2.1094 6.8438-0.70312 10.172 13.219 29.344 24.328 59.578 33.328 90.516l-72.844 14.391c-15.797 3.0469-27.703 16.172-29.25 32.203l-1.6875 16.781c-0.42188 3.9844-0.14062 8.0156 0.75 11.953l6.5625 83.297-20.719 3.0938zm1054 385.92-22.688 101.48-603.94 274.64 6.4219-123.71h0.046875c3.8438-0.32812 7.6406-1.2188 11.25-2.7188l590.86-244.97c4.125-1.6875 6.7969-5.7188 6.7969-10.172v-11.906l1.2656 0.375c7.3125 2.1094 11.672 9.5625 9.9844 16.969z"/>
</svg>
