<?xml version="1.0" encoding="UTF-8"?>
<svg width="1200pt" height="1200pt" version="1.1" viewBox="0 0 1200 1200" xmlns="http://www.w3.org/2000/svg">
 <path d="m354.74 453.71h-83.812c-8.2969 0-15 6.7031-15 15v75.469c0 8.2969 6.7031 15 15 15h83.812c8.2969 0 15-6.7031 15-15v-75.469c0-8.2969-6.7031-15-15-15zm-15 75.469h-53.812v-45.469h53.812zm206.48-75.469h-83.812c-8.2969 0-15 6.7031-15 15v75.469c0 8.2969 6.7031 15 15 15h83.812c8.2969 0 15-6.7031 15-15v-75.469c0-8.2969-6.7031-15-15-15zm-15 75.469h-53.812v-45.469h53.812zm206.44-75.469h-83.859c-8.2969 0-15 6.7031-15 15v75.469c0 8.2969 6.7031 15 15 15h83.859c8.2969 0 15-6.7031 15-15v-75.469c0-8.2969-6.7031-15-15-15zm-15 75.469h-53.859v-45.469h53.859zm206.39-75.469h-83.812c-8.2969 0-15 6.7031-15 15v75.469c0 8.2969 6.7031 15 15 15h83.812c8.2969 0 15-6.7031 15-15v-75.469c0-8.2969-6.7031-15-15-15zm-15 75.469h-53.812v-45.469h53.812zm-559.31 76.875h-83.812c-8.2969 0-15 6.7031-15 15v75.469c0 8.2969 6.7031 15 15 15h83.812c8.2969 0 15-6.7031 15-15v-75.469c0-8.2969-6.7031-15-15-15zm-15 75.422h-53.812v-45.469h53.812zm206.48-75.422h-83.812c-8.2969 0-15 6.7031-15 15v75.469c0 8.2969 6.7031 15 15 15h83.812c8.2969 0 15-6.7031 15-15v-75.469c0-8.2969-6.7031-15-15-15zm-15 75.422h-53.812v-45.469h53.812zm206.44-75.422h-83.859c-8.2969 0-15 6.7031-15 15v75.469c0 8.2969 6.7031 15 15 15h83.859c8.2969 0 15-6.7031 15-15v-75.469c0-8.2969-6.7031-15-15-15zm-15 75.422h-53.859v-45.469h53.859zm206.39-75.422h-83.812c-8.2969 0-15 6.7031-15 15v75.469c0 8.2969 6.7031 15 15 15h83.812c8.2969 0 15-6.7031 15-15v-75.469c0-8.2969-6.7031-15-15-15zm-15 75.422h-53.812v-45.469h53.812zm-559.31 76.828h-83.812c-8.2969 0-15 6.7031-15 15v75.469c0 8.2969 6.7031 15 15 15h83.812c8.2969 0 15-6.7031 15-15v-75.469c0-8.2969-6.7031-15-15-15zm-15 75.469h-53.812v-45.469h53.812zm206.48-75.469h-83.812c-8.2969 0-15 6.7031-15 15v75.469c0 8.2969 6.7031 15 15 15h83.812c8.2969 0 15-6.7031 15-15v-75.469c0-8.2969-6.7031-15-15-15zm-15 75.469h-53.812v-45.469h53.812zm206.44-75.469h-83.859c-8.2969 0-15 6.7031-15 15v75.469c0 8.2969 6.7031 15 15 15h83.859c8.2969 0 15-6.7031 15-15v-75.469c0-8.2969-6.7031-15-15-15zm-15 75.469h-53.859v-45.469h53.859zm301.22-598.6h-89.719v-35.906c0-19.547-20.391-34.875-46.453-34.875s-46.453 15.328-46.453 34.875v35.906h-98.906v-35.906c0-19.547-20.391-34.875-46.453-34.875s-46.453 15.328-46.453 34.875v35.906h-98.906v-35.906c0-19.547-20.391-34.875-46.453-34.875s-46.453 15.328-46.453 34.875v35.906h-98.953v-35.906c0-19.547-20.391-34.875-46.453-34.875s-46.453 15.328-46.453 34.875v35.906h-89.672c-30.938 0-56.156 25.172-56.156 56.109v688.26c0 30.938 25.172 56.156 56.156 56.156h847.78c30.938 0 56.109-25.172 56.109-56.156v-688.31c0-30.938-25.172-56.109-56.109-56.109zm-86.953 522.98c-4.5469-1.2656-9.375-0.32812-13.125 2.4844s-5.9062 7.2656-5.9062 11.953c0 64.734-50.25 134.58-131.44 134.58h-610.31c-14.391 0-26.156-11.719-26.156-26.156v-470.68h900v379.4zm90.234 56.391-111.05 65.859c-4.9219 2.9062-9.8906 5.5781-14.812 8.0156 1.2656-1.3594 2.5312-2.7188 3.75-4.0781 22.875-25.734 37.547-58.547 41.672-92.297zm-155.9-614.76c1.2188-1.7812 7.0781-5.3906 16.453-5.3906 9.4219 0 15.281 3.6562 16.453 5.3906v35.391h-32.906zm-191.81-0.046875c1.2188-1.7812 7.0312-5.3906 16.453-5.3906s15.234 3.6562 16.453 5.3906v35.391h-32.906zm-191.81 0c1.2188-1.7812 7.0312-5.3906 16.453-5.3906 9.4219 0 15.234 3.6562 16.453 5.3906v35.391h-32.906zm-191.86 0.046875c1.2188-1.7812 7.0781-5.3906 16.453-5.3906 9.4219 0 15.281 3.6562 16.453 5.3906v35.391h-32.906zm-119.62 65.391h89.672v23.672c0 19.547 20.391 34.875 46.453 34.875 8.2969 0 15-6.7031 15-15s-6.7031-15-15-15c-9.4219 0-15.234-3.6562-16.453-5.3906v-23.156h161.86v23.672c0 19.547 20.391 34.875 46.453 34.875 8.2969 0 15-6.7031 15-15s-6.7031-15-15-15c-9.4219 0-15.281-3.6562-16.453-5.3906v-23.156h161.81v23.672c0 19.547 20.391 34.875 46.453 34.875 8.2969 0 15-6.7031 15-15s-6.7031-15-15-15c-9.4219 0-15.281-3.6562-16.453-5.3906v-23.156h161.81v23.672c0 19.547 20.391 34.875 46.453 34.875 8.2969 0 15-6.7031 15-15s-6.7031-15-15-15c-9.4219 0-15.234-3.6562-16.453-5.3906v-23.156h152.63c14.391 0 26.109 11.719 26.109 26.109v89.109l-900.05-0.09375v-89.109c0-14.391 11.719-26.109 26.156-26.109zm847.74 740.48h-847.74c-14.297 0-25.875-11.531-26.109-25.734 7.8281 4.125 16.688 6.4688 26.109 6.4688h847.78c9.4219 0 18.281-2.3438 26.062-6.4219-0.23437 14.203-11.812 25.734-26.062 25.734zm26.109-75.375c0 14.391-11.719 26.109-26.109 26.109h-847.74c-14.25 0-25.875-11.484-26.109-25.688 7.8281 4.125 16.688 6.4688 26.109 6.4688h642.47c41.344 0 77.203-9.8438 112.83-30.938l118.55-70.312v94.406z"/>
</svg>
