<?xml version="1.0" encoding="UTF-8"?>
<svg width="1200pt" height="1200pt" version="1.1" viewBox="0 0 1200 1200" xmlns="http://www.w3.org/2000/svg">
 <path d="m312.14 267.84v-31.688c0-7.0781 5.7188-12.797 12.797-12.797h123c12.422-18.984 26.766-36.656 42.75-52.641 59.391-59.391 141.42-96.094 232.03-96.094s172.64 36.75 232.03 96.094c59.391 59.391 96.094 141.42 96.094 232.03 0 84.234-31.734 161.06-83.953 219.19-8.7188 9.7031-18.047 18.891-27.844 27.516l96.703 185.02c3.2812 6.2344 0.84375 13.969-5.3906 17.203l-105 54.891v67.406c0 7.0781-5.7188 12.797-12.797 12.797h-34.219v31.688c0 7.0781-5.7188 12.797-12.797 12.797l-178.74 0.046875-177.19 92.625c-6.2344 3.2812-13.969 0.84375-17.203-5.3906l-45.609-87.234h-168.89c-7.0781 0-12.797-5.7188-12.797-12.797l-0.046875-334.74-114.52-219.1c-3.2812-6.2344-0.84375-13.969 5.3906-17.203l109.12-57.047v-109.73c0-7.0781 5.7188-12.797 12.797-12.797zm76.875 643.69h365.44c7.0781 0 12.797-5.7188 12.797-12.797s-5.7188-12.797-12.797-12.797l-365.44-0.046875c-7.0781 0-12.797 5.7188-12.797 12.797s5.7188 12.844 12.797 12.844zm0-89.812h257.06c7.0781 0 12.797-5.7188 12.797-12.797s-5.7188-12.797-12.797-12.797l-257.06-0.046875c-7.0781 0-12.797 5.7188-12.797 12.797s5.7188 12.844 12.797 12.844zm0-89.812h133.55c7.0781 0 12.797-5.7188 12.797-12.797s-5.7188-12.797-12.797-12.797l-133.55-0.046875c-7.0781 0-12.797 5.7188-12.797 12.797 0 7.125 5.7188 12.844 12.797 12.844zm0-89.812h46.266c7.0781 0 12.797-5.7188 12.797-12.797s-5.7188-12.797-12.797-12.797h-46.266c-7.0781 0-12.797 5.7188-12.797 12.797s5.7188 12.797 12.797 12.797zm333.71-446.86c-17.391 0-33.094 7.0312-44.484 18.422-11.391 11.391-18.422 27.094-18.422 44.484s7.0312 33.094 18.422 44.484c11.391 11.391 27.094 18.422 44.484 18.422 17.391 0 33.094-7.0312 44.484-18.422 11.391-11.391 18.422-27.141 18.422-44.484 0-17.391-7.0312-33.094-18.422-44.484-11.344-11.391-27.094-18.422-44.484-18.422zm26.391 36.562c-6.75-6.75-16.078-10.922-26.344-10.922-10.312 0-19.641 4.1719-26.344 10.922-6.75 6.75-10.922 16.078-10.922 26.344 0 10.312 4.1719 19.641 10.922 26.344 6.75 6.75 16.078 10.922 26.344 10.922 10.312 0 19.641-4.1719 26.344-10.922 6.75-6.75 10.922-16.078 10.922-26.344s-4.1719-19.594-10.922-26.344zm-35.344 108.14c-13.359 0-25.453 5.4375-34.266 14.25-8.7656 8.7656-14.25 20.906-14.25 34.266v167.34c0 13.359 5.4375 25.453 14.25 34.266 8.7656 8.7656 20.906 14.25 34.266 14.25h17.953c13.359 0 25.453-5.4375 34.266-14.25 8.7656-8.7656 14.25-20.906 14.25-34.266l-0.046876-167.39c0-13.359-5.4375-25.453-14.25-34.266-8.7656-8.7656-20.906-14.25-34.266-14.25zm17.953 25.594h-17.953c-6.2812 0-12 2.5781-16.125 6.7031s-6.7031 9.8438-6.7031 16.125v167.34c0 6.2812 2.5781 12 6.7031 16.125s9.8438 6.7031 16.125 6.7031h17.953c6.2812 0 12-2.5781 16.125-6.7031s6.7031-9.8438 6.7031-16.125v-167.29c0-6.2812-2.5781-12-6.7031-16.125-4.1719-4.1719-9.8906-6.75-16.125-6.75zm-265.78-122.76v0.09375c-28.922 46.406-45.656 101.2-45.656 159.89 0 77.672 29.25 148.5 77.344 202.03 48.609 54.141 116.48 90.656 192.79 98.766 4.6875 0.51562 8.9531 3.6094 10.688 8.3438l21.703 59.906 21.516-59.438c1.5-4.6875 5.625-8.25 10.828-8.8125 37.078-3.9375 72.141-14.578 104.02-30.703 0.42187-0.23438 0.84375-0.46875 1.2656-0.65625 15.516-7.9219 30.234-17.156 44.062-27.562 0.32813-0.28125 0.65625-0.51562 0.98438-0.75 15.375-11.672 29.625-24.75 42.469-39.094 48.094-53.531 77.344-124.36 77.344-202.03 0-83.531-33.844-159.19-88.594-213.89-54.75-54.75-130.36-88.594-213.89-88.594s-159.19 33.844-213.89 88.594c-16.359 16.219-30.75 34.312-42.984 53.906zm-33.141 6.1875h-95.016v18.891h85.781c2.8594-6.375 5.9531-12.703 9.2344-18.891zm-19.547 44.531h-122.48v712.18h561.98v-301.6c-27.281 11.766-56.438 19.969-86.953 23.953l-31.031 85.688c-2.3906 6.6562-9.75 10.078-16.359 7.6406-3.7031-1.3594-6.4219-4.2188-7.6406-7.6406l-31.031-85.688c-79.547-10.406-150.14-49.312-201.14-106.12-52.219-58.125-83.953-134.95-83.953-219.19-0.046876-38.25 6.5156-75.047 18.609-109.22zm465.1 398.16v269.48h21.422v-282.1c-6.9375 4.4531-14.109 8.6719-21.422 12.609zm-246.61 339.66h-156.14l33.516 64.125zm-366.66-402.66v-209.44l-85.969 44.953zm660.32 249.14 81.844-42.797-81.844-156.56z" fill-rule="evenodd"/>
</svg>
