<?xml version="1.0" encoding="UTF-8"?>
<svg width="1200pt" height="1200pt" version="1.1" viewBox="0 0 1200 1200" xmlns="http://www.w3.org/2000/svg">
 <path d="m1187.7 924c0.23438-1.3125 0.1875-2.6719-0.14062-4.0312l-150.32-575.76v-0.046875c-17.203-75.562-58.266-113.91-122.11-113.91-15.422 0-30 2.5781-44.531 7.875-4.6406 1.6875-7.3125 6.6094-6.0938 11.438l29.953 121.31h-107.2c7.6875-28.078 12-57.703 11.484-89.719 0-107.62-87.516-195.14-195.14-195.14-107.58 0-195.1 87.516-195.14 195.1-0.51562 32.016 3.8438 61.688 11.484 89.766h-109.64l29.953-121.31c1.1719-4.8281-1.4531-9.75-6.0938-11.438-14.531-5.2969-29.109-7.875-44.531-7.875-64.594 0-103.41 36.234-122.11 113.95l-144.47 558.32c-5.5312 14.719-8.4844 30.797-8.4844 47.766 0 71.531 58.172 129.71 129.71 129.71l900.61-1.2188h15.75c70.312 0 129.71-59.391 129.71-129.71 0-8.5781-0.89062-16.922-2.5781-25.078zm-302.21-670.26c9.7031-2.7188 19.266-4.0312 29.625-4.0312 55.125 0 87.938 31.5 103.27 99.141 0 0.046875 0.046875 0.09375 0.046875 0.14062v0.1875l132.66 508.18c-23.578-23.25-55.688-37.875-90.562-37.875-11.812 0-23.109 1.5-34.312 4.5938l-140.81-570.28zm95.906 469.31c-33.984-11.109-160.45-51.375-201.79-64.5l162.19-95.906zm-200.06-332.76h117.89l20.203 81.797-34.875 20.297c-36.75-37.031-95.531-95.578-102.98-98.531-0.46875-0.1875-0.9375-0.1875-1.3594-0.23438 0.375-1.0781 0.75-2.2031 1.125-3.2812zm-353.48-109.08c0-96.938 78.844-175.78 175.74-175.78s175.74 78.844 175.74 175.92c1.7812 111-57.656 194.48-120.52 282.84-18.469 25.969-37.453 52.641-55.266 80.531-17.766-27.891-36.75-54.609-55.219-80.531-62.906-88.359-122.29-171.84-120.52-282.84v-0.14062zm314.11 193.55 71.062 61.781-183.32 103.69c14.672-22.172 29.953-43.734 44.953-64.781 23.953-33.656 47.344-66.609 67.312-100.69zm-555.56-125.81c16.5-68.625 48.375-99.234 103.31-99.234 10.219 0 19.969 1.3125 29.625 4.0312l-140.81 570.24c-11.156-3.0469-22.5-4.5469-34.453-4.5469-34.828 0.60938-65.578 13.453-88.406 34.547zm-152.48 601.36c0-6.4688 0.51562-12.75 1.5-18.891 0.28125-0.5625 0.46875-1.125 0.60938-1.7344l5.3438-20.578c15.703-41.203 54.797-69.469 102.84-70.312 13.172 0 25.547 2.2031 37.875 6.7031 2.5781 0.9375 5.4375 0.75 7.875-0.5625s4.1719-3.5625 4.875-6.2344l110.72-448.4h120.32c22.453 66.562 63.703 124.78 106.69 185.16 19.781 27.844 40.172 56.578 58.828 86.484l-554.48 313.6c-1.9219-8.1094-3-16.5-3-25.219zm110.3 110.3c-17.672 0-34.359-4.2656-49.172-11.719l602.68-332.21 166.69 68.016-65.109 275.06zm667.55-0.89062 65.625-277.26c0.70312-2.9062-0.84375-5.9062-3.6094-6.9844l-174.14-71.062c-1.6875-0.65625-3.6094-0.60938-5.2031 0.32812l-611.68 337.13c-19.359-13.031-34.266-32.109-42.281-54.422 0.046875 0 0.09375 0 0.14062-0.046875l558.42-315.84c1.4062 0.75 2.9531 1.2188 4.5938 1.2188 3.375 0 6.5156-1.7344 8.25-4.6406 1.2188-2.0156 2.5312-3.9844 3.7969-6l210.79-119.25c1.7344-0.98438 2.8594-2.7188 3.0469-4.6406 0.1875-1.9688-0.5625-3.8906-2.0625-5.2031l-79.406-69.047c10.781-19.266 20.344-38.953 28.172-59.344 0.1875 0.09375 0.32812 0.23438 0.51562 0.32812 6.9844 4.0312 66.562 63.047 102.47 99.281 1.1719 1.1719 2.7188 1.7812 4.3125 1.7812 1.0312 0 2.1094-0.28125 3.0469-0.84375l35.859-20.859 16.312 66-177 104.62c-2.0625 1.2188-3.1875 3.5156-2.9531 5.9062 0.28125 2.3906 1.9219 4.3594 4.1719 5.1094 2.0625 0.65625 205.92 65.484 221.81 70.969l19.594 79.453-58.5-16.312c-1.6406-0.46875-3.3281-0.23438-4.7344 0.60938s-2.4375 2.25-2.8125 3.8906l-57.469 255.05-69.234 0.09375zm248.81-0.28125-167.21 0.23438 55.453-246.14 58.922 16.453 2.1562 8.7656c0.65625 2.6719 2.4375 4.9219 4.875 6.2344s5.2969 1.5 7.875 0.5625c12.516-4.5469 24.562-6.7031 37.922-6.7031 59.812 0 110.3 50.531 110.3 110.3 0 59.812-50.531 110.3-110.3 110.3z"/>
 <path d="m682.4 281.21c0-43.453-35.344-78.797-78.797-78.797s-78.797 35.344-78.797 78.797 35.344 78.797 78.797 78.797 78.797-35.344 78.797-78.797zm-138.19 0c0-32.766 26.625-59.391 59.391-59.391 32.766 0 59.391 26.625 59.391 59.391s-26.625 59.391-59.391 59.391c-32.766 0-59.391-26.625-59.391-59.391z"/>
</svg>
