<?xml version="1.0" encoding="UTF-8"?>
<svg width="1200pt" height="1200pt" version="1.1" viewBox="0 0 1200 1200" xmlns="http://www.w3.org/2000/svg">
 <path d="m1026.4 508.92c-1.5-6.4219-6.6562-11.391-13.125-12.656-27.891-5.4375-56.578-5.4375-84.469 0-6.4688 1.2656-11.625 6.2344-13.125 12.656l-7.9219 33.047c-18.797 7.0312-36.328 17.156-51.797 29.953l-32.625-9.7031c-6.3281-1.875-13.172 0.09375-17.531 5.0625-18.656 21.422-33 46.266-42.188 73.125-2.1562 6.2812-0.46875 13.172 4.3125 17.719l24.703 23.438c-3.3281 19.781-3.3281 39.984 0 59.812l-24.703 23.391c-4.7812 4.5469-6.4688 11.484-4.3125 17.719 9.1875 26.859 23.531 51.703 42.188 73.078 4.3594 5.0156 11.203 6.9844 17.531 5.1094l32.625-9.6562c15.469 12.75 33 22.875 51.797 29.906l7.9219 33.047c1.5 6.4219 6.6562 11.391 13.125 12.656 27.891 5.4375 56.578 5.4375 84.469 0 6.4688-1.2656 11.625-6.2344 13.125-12.656l7.9688-33.047c18.797-7.0312 36.281-17.156 51.797-29.953l32.578 9.7031c6.3281 1.875 13.219-0.09375 17.531-5.1094 18.656-21.375 33-46.219 42.188-73.078 2.1562-6.2344 0.46875-13.172-4.3125-17.719l-24.703-23.391c3.3281-19.828 3.3281-40.031 0-59.812l24.703-23.438c4.7812-4.5469 6.4688-11.438 4.3125-17.719-9.1875-26.859-23.531-51.703-42.188-73.125-4.3125-4.9688-11.203-6.9375-17.531-5.0625l-32.578 9.6562c-15.516-12.75-33-22.875-51.844-29.906zm-30.188 18.703 7.4531 31.219c1.4062 5.8125 5.7188 10.406 11.391 12.188 20.672 6.4688 39.656 17.438 55.594 32.109 4.3594 4.0312 10.5 5.4375 16.219 3.75l30.75-9.1406c10.359 13.312 18.797 27.984 25.172 43.594l-23.297 22.078c-4.3125 4.0781-6.1406 10.125-4.875 15.938 4.7344 21.141 4.7344 43.078 0 64.172-1.2656 5.8125 0.5625 11.859 4.875 15.938l23.297 22.078c-6.375 15.609-14.812 30.281-25.172 43.594l-30.75-9.1406c-5.7188-1.6875-11.859-0.28125-16.219 3.75-15.938 14.672-34.922 25.641-55.594 32.109-5.6719 1.7812-9.9844 6.4219-11.391 12.188l-7.4531 31.219c-16.688 2.2969-33.656 2.2969-50.344 0l-7.4531-31.219c-1.4062-5.7656-5.7188-10.406-11.391-12.188-20.625-6.4688-39.656-17.438-55.594-32.109-4.3594-4.0312-10.5-5.4375-16.219-3.75l-30.75 9.1406c-10.359-13.312-18.797-27.984-25.172-43.547l23.297-22.125c4.3125-4.0781 6.1406-10.125 4.875-15.938-4.7344-21.094-4.7344-43.031 0-64.172 1.2656-5.8125-0.5625-11.859-4.875-15.938l-23.297-22.078c6.375-15.609 14.812-30.281 25.172-43.594l30.75 9.1406c5.7188 1.6875 11.859 0.28125 16.219-3.75 15.938-14.672 34.969-25.641 55.594-32.109 5.6719-1.7812 9.9844-6.375 11.391-12.188l7.4531-31.219c16.688-2.25 33.656-2.25 50.344 0zm-25.172 94.922c-49.078 0-88.922 39.844-88.922 88.922 0 49.031 39.844 88.875 88.922 88.875s88.922-39.844 88.922-88.875c0-49.078-39.844-88.922-88.922-88.922zm0 33.75c30.422 0 55.172 24.703 55.172 55.172 0 30.422-24.75 55.125-55.172 55.125s-55.172-24.703-55.172-55.125c0-30.469 24.75-55.172 55.172-55.172zm-294.94-201.37 104.58-104.58c2.25-2.25 3.7969-5.0625 4.5-8.1562l12.281-52.969 104.44-84.516c5.2969-4.2656 12.984-3.8906 17.812 0.9375l45.609 45.609c4.8281 4.8281 5.2031 12.516 0.9375 17.812l-84.516 104.39-52.969 12.281c-3.0938 0.70312-5.9062 2.2969-8.1562 4.5469l-102.47 102.47c-6.5625 6.5625-6.5625 17.25 0 23.859 6.6094 6.5625 17.297 6.5625 23.859 0l99.094-99.047 53.953-12.516c3.6562-0.84375 6.9375-2.9062 9.2812-5.8125l88.125-108.94c15.188-18.703 13.734-45.891-3.2812-62.906l-45.609-45.609c-17.062-17.062-44.203-18.469-62.953-3.2812l-108.89 88.125c-2.9062 2.3438-4.9688 5.625-5.8125 9.2812l-12.516 53.953-101.16 101.2c-6.6094 6.5625-6.6094 17.25 0 23.859 6.5625 6.6094 17.25 6.6094 23.859 0zm-203.95 331.55 45.469-45.469c6.5625-6.5625 6.5625-17.25 0-23.859s-17.297-6.6094-23.859 0l-45.516 45.516-39.938-39.938 45.656-45.656c6.6094-6.6094 6.6094-17.297 0-23.859-6.5625-6.6094-17.25-6.6094-23.859 0l-45.656 45.609-35.812-35.812c-6.5625-6.5625-17.25-6.5625-23.859 0l-266.21 266.26c-24.281 24.281-37.922 57.188-37.922 91.5 0 34.359 13.641 67.266 37.922 91.547l0.09375 0.09375c24.281 24.281 57.188 37.922 91.547 37.922 34.312 0 67.219-13.641 91.5-37.922l266.26-266.21c6.5625-6.6094 6.5625-17.297 0-23.906zm0 47.766-254.29 254.29c-17.953 17.953-42.281 28.031-67.641 28.031-25.406 0-49.734-10.078-67.688-28.031l-0.09375-0.09375c-17.953-17.953-28.031-42.281-28.031-67.688 0-25.359 10.078-49.688 28.031-67.641l254.29-254.29zm-156.61-2.6719-132.61 132.61c-6.6094 6.6094-6.6094 17.297 0 23.859 6.5625 6.6094 17.25 6.6094 23.859 0l132.61-132.61c6.5625-6.5625 6.5625-17.297 0-23.859s-17.297-6.5625-23.859 0zm740.39 86.531c14.625 17.297 22.922 39.234 23.203 62.109 0.32812 26.344-9.9844 51.703-28.641 70.312l-0.09375 0.09375c-18.609 18.609-43.969 28.922-70.312 28.641-26.344-0.32812-51.422-11.25-69.609-30.328l-534.19-560.72c-4.5938-4.8281-11.578-6.5156-17.859-4.2656-72.562 25.641-156.74 9.4688-214.78-48.562-51.938-51.938-70.312-124.82-55.219-191.63l148.03 148.03c5.3438 5.3438 13.547 6.4688 20.156 2.8125l84.328-47.016c2.7188-1.5469 5.0156-3.7969 6.5156-6.5156l47.016-84.328c3.7031-6.6094 2.5312-14.812-2.8125-20.156l-147.98-148.03c66.75-15.141 139.64 3.2812 191.58 55.266 58.031 58.031 74.203 142.13 48.562 214.74-2.25 6.3281-0.51562 13.406 4.4062 18l243.37 225.61c6.8438 6.375 17.531 5.9531 23.859-0.89062 6.3281-6.7969 5.9531-17.484-0.89062-23.859l-235.45-218.26c24.703-81.938 4.7344-174.52-60-239.26-68.438-68.438-168.05-86.859-253.26-55.266-5.3906 2.0156-9.375 6.6094-10.641 12.234-1.2188 5.625 0.51562 11.484 4.5938 15.562l159 159-38.484 69-69 38.484-159.05-159.05c-4.0312-4.0312-9.8906-5.7656-15.516-4.5-5.625 1.2188-10.219 5.2031-12.234 10.594-31.594 85.219-13.125 184.82 55.312 253.26 64.734 64.734 157.4 84.75 239.34 59.953l526.87 552.98c24.422 25.688 58.219 40.359 93.656 40.828 35.391 0.42188 69.516-13.5 94.594-38.531l0.046875-0.09375c25.078-25.031 38.953-59.156 38.531-94.594-0.375-30.75-11.531-60.281-31.266-83.531-6-7.0781-16.688-7.9688-23.766-1.9219s-7.9688 16.688-1.9219 23.766z" fill-rule="evenodd"/>
</svg>
