<?xml version="1.0" encoding="UTF-8"?>
<svg width="1200pt" height="1200pt" version="1.1" viewBox="0 0 1200 1200" xmlns="http://www.w3.org/2000/svg">
 <path d="m599.76 1052.3c-4.4062 0-8.2969-1.2188-11.25-2.4375-91.078-41.484-166.03-87.891-228.98-142.31-44.438-38.578-74.719-74.719-94.969-114-6.6094-12.938-11.484-26.391-16.125-39.328-1.2188-3.6562-2.6719-7.3125-3.8906-10.969-2.2031-6.0938-2.4375-12.703-2.4375-17.578v-416.72c0.46875-16.125 10.266-26.391 26.109-27.094 46.641-1.9688 94.734-10.266 143.53-24.891 59.578-18.562 107.67-44.203 146.72-78.609 6.3281-5.625 12.703-11.953 18.797-18.047l3.8906-3.8906c5.8594-5.625 12.938-8.5312 19.781-8.5312 6.6094 0.23438 12.938 3.1875 17.812 8.5312 41.016 43.453 94.219 75.703 162.61 97.922 48.562 15.891 99.141 25.125 150.14 27.609 16.828 0.75 26.391 10.969 26.391 27.844-0.46875 70.078-0.46875 140.86-0.46875 209.48v48.562c0 47.859 0 97.406 0.23437 146.02 0.23438 17.578-3.4219 35.156-10.969 54.422-16.125 39.328-41.25 75.422-79.594 114-44.438 43.969-97.641 83.016-162.84 119.62-23.438 12.938-47.344 24.891-70.781 36.609-6.8438 3.4219-13.922 6.8438-20.766 10.5-4.4062 2.4375-8.7656 3.4219-12.938 3.4219zm-334.45-743.16v416.48c0 2.9062 0 7.0781 0.98438 9.75 1.2188 3.4219 2.6719 7.3125 3.8906 10.969 4.6406 12.938 9.0469 25.125 14.906 36.609 18.797 36.375 47.344 70.547 89.578 106.92 61.266 52.734 134.29 98.156 223.4 138.66 0.98438 0.46875 1.9688 0.75 4.1719-0.46875 7.0781-3.6562 14.156-7.0781 21-10.5 22.969-11.484 46.875-23.438 69.844-36.141 63.234-35.625 114.98-73.5 157.74-115.73 36.141-36.141 59.812-69.844 74.484-106.22 6.6094-16.359 9.5156-30.75 9.2812-45.422-0.46875-48.844-0.23438-98.391-0.23438-146.48v-48.562c0-68.625 0-139.4 0.46875-209.48 0-2.9062-0.46875-3.8906-0.46875-4.1719 0 0-0.98438-0.46875-3.6562-0.46875-53.203-2.4375-105.94-12.188-156.52-28.828-72-23.672-128.44-57.609-172.13-104.25-0.75-0.98437-1.4531-1.2188-1.4531-1.2188-0.46875 0-1.4531 0.46875-2.9062 1.6875l-3.6562 3.6562c-6.3281 6.6094-13.172 13.172-20.016 19.266-41.766 36.375-92.531 63.469-155.29 83.25-50.766 15.375-101.06 24.188-149.44 25.875-3.1875 0.46875-3.6562 0.46875-3.8906 4.6406zm335.44 682.64c-2.6719 0-5.3906-0.46875-7.8281-1.4531 0 0-0.23438 0-0.23438-0.23437-72.75-35.391-125.48-67.125-171.14-103.03-29.297-22.969-66.891-54.938-94.969-97.406-7.0781-10.5-12.938-21.75-18.562-32.25-7.5469-14.672-11.25-30.281-11.25-49.312 0.46875-88.359 0.23438-178.22 0.23438-264.89v-96.188c0-5.8594 4.4062-10.734 10.031-11.484 120.61-15.891 210.94-51.75 284.44-112.31 4.4062-3.6562 10.969-3.4219 15.141 0.23438 37.125 33.703 80.578 59.344 133.08 78.609 47.344 17.578 97.172 28.547 152.58 33.938 5.8594 0.46875 10.5 5.625 10.5 11.484v370.07c0 7.0781-1.2188 14.391-3.6562 20.766-11.719 32.719-31.5 63-63.703 97.406-37.594 39.797-84.703 76.172-144.52 111.09-20.766 11.953-42.234 23.203-63.234 34.172-5.1094 2.6719-10.5 5.3906-15.609 8.0625-0.23437 0-0.46875 0.23437-0.46875 0.23437-2.9062 1.4531-6.8438 2.4375-10.734 2.4375zm-280.5-634.78v86.203c0 86.906 0 176.53-0.23438 264.89 0 15.141 2.6719 27.328 8.5312 38.578 5.1094 10.031 10.734 20.484 17.109 30.047 20.484 31.266 48.328 59.578 90.094 92.062 43.969 34.688 95.203 65.438 165.52 99.609h0.46875c5.1094-2.6719 10.266-5.3906 15.375-8.0625 20.766-10.734 42-21.75 62.25-33.703 58.594-34.172 102.8-68.344 139.4-106.92 30.047-31.969 48.328-59.578 58.828-89.344v-0.23437c1.4531-3.6562 2.2031-8.2969 2.2031-12.703 0.23438-80.578 0-162.61 0-241.69v-117.94c-53.203-5.8594-101.81-17.109-147.94-34.172-51.75-19.031-95.438-44.203-133.08-76.641-73.5 58.359-162.61 93.516-278.58 110.11z" fill-rule="evenodd"/>
 <path d="m743.29 803.48h-285.89c-6.3281 0-11.719-5.1094-11.719-11.719v-222.19c0-6.3281 5.1094-11.719 11.719-11.719h285.89c6.3281 0 11.719 5.1094 11.719 11.719v222.19c0 6.6094-5.3906 11.719-11.719 11.719zm-274.18-23.203h262.69v-198.98h-262.69z" fill-rule="evenodd"/>
 <path d="m705.47 581.06h-209.72c-6.3281 0-11.719-5.1094-11.719-11.719v-57.141c0-64.219 52.266-116.44 116.44-116.44 64.219 0 116.44 52.266 116.44 116.44v57.141c0.23438 6.6094-5.1094 11.719-11.484 11.719zm-198-23.203h186.52v-45.422c0-51.516-41.766-93.281-93.281-93.281s-93.281 41.766-93.281 93.281v45.422z" fill-rule="evenodd"/>
 <path d="m600.47 696.32c-19.781 0-35.906-16.125-35.906-35.906s16.125-35.906 35.906-35.906 35.906 16.125 35.906 35.906-16.125 35.906-35.906 35.906zm0-48.328c-7.0781 0-12.703 5.625-12.703 12.703s5.625 12.703 12.703 12.703 12.703-5.625 12.703-12.703-5.8594-12.703-12.703-12.703z" fill-rule="evenodd"/>
 <path d="m600.47 740.76c-6.3281 0-11.719-5.1094-11.719-11.719v-44.203c0-6.3281 5.1094-11.719 11.719-11.719s11.719 5.1094 11.719 11.719v44.203c-0.23438 6.3281-5.3906 11.719-11.719 11.719z" fill-rule="evenodd"/>
</svg>
