<?xml version="1.0" encoding="UTF-8"?>
<svg width="1200pt" height="1200pt" version="1.1" viewBox="0 0 1200 1200" xmlns="http://www.w3.org/2000/svg">
 <path d="m423.58 721.73-12.227-32.582 22.473-8.4297 12.227 32.582z"/>
 <path d="m359.57 482.68 12.219 32.582-22.473 8.4258-12.219-32.582z"/>
 <path d="m396.29 581.54-22.473 8.4258-12.215-32.586 22.473-8.4258z"/>
 <path d="m421.68 647.18-22.473 8.4258-12.215-32.586 22.473-8.4258z"/>
 <path d="m710.4 528 27.602 73.199 156-58.801-27.602-73.199zm42 43.199-10.801-27.602 111.6-42 10.801 27.602z"/>
 <path d="m908.4 423.6-67.199-177.6-408 153.6 67.199 177.6zm-80.398-146.4 49.199 133.2-363.6 136.8-49.199-133.2z"/>
 <path d="m537.09 678.32-8.4258-22.473 167.43-62.758 8.4258 22.473z"/>
 <path d="m509.19 605.83 167.41-62.777 8.4258 22.473-167.41 62.777z"/>
 <path d="m555.63 730.02-8.4258-22.473 115.74-43.383 8.4258 22.473z"/>
 <path d="m220.82 572.05 62.777 167.41-22.473 8.4258-62.777-167.41z"/>
 <path d="m279.93 573.99 43.395 115.73-22.473 8.4258-43.395-115.73z"/>
 <path d="m747.6 852 166.8 2.3984 1.1992-78-166.8-2.3984zm25.199-52.801 118.8 2.3984v30l-118.8-2.3984z"/>
 <path d="m710.91 854.18-178.78-2.7227 0.36719-23.996 178.78 2.7227z"/>
 <path d="m655.13 907.88-123.59-1.8789 0.36328-23.996 123.59 1.8789z"/>
 <path d="m982.8 134.4-644.4 242.4 4.8008 10.801c2.3984 7.1992 2.3984 15.602-1.1992 21.602-3.6016 7.1992-8.3984 12-15.602 15.602-14.398 6-31.199-2.3984-37.199-16.801l-4.8008-10.801-238.8 88.797 96 255.6-3.6016 206.4 254.4 3.6016v-12c0-15.602 13.199-28.801 28.801-28.801 15.602 0 28.801 13.199 28.801 28.801v12l690 12 7.1992-456h-24zm-906 366 194.4-73.199c9.6016 14.398 26.398 24 44.398 24 2.3984 0 4.8008 0 7.1992-1.1992l2.3984 7.1992 22.801-8.3984-2.3984-7.1992c8.3984-6 14.398-13.199 19.199-21.602 3.6016-9.6016 6-19.199 4.8008-28.801l542.4-202.8 142.8 382.8-543.6 202.8c-9.6016-14.398-26.398-24-44.398-24-2.3984 0-4.8008 0-7.1992 1.1992l-2.3984-4.8008-22.801 8.3984 1.1992 4.8008c-8.3984 6-14.398 13.199-19.199 21.602-3.6016 9.6016-6 19.199-4.8008 28.801l-194.4 73.199zm872.4 134.4-1.1992 90-230.4-3.6016zm103.2 303.6-579.6-8.3984c-4.8008-19.199-19.199-34.801-38.398-39.602v-4.8008h-24v4.8008c-19.199 4.8008-34.801 19.199-39.602 38.398l-207.6-3.6016 1.2031-121.2 40.801 109.2 205.2-76.801v12h24v-21.602l8.3984-3.6016-4.8008-10.801c-2.3984-7.1992-2.3984-15.602 1.1992-21.602 3.6016-6 8.3984-12 15.602-15.602 14.398-6 31.199 2.3984 37.199 16.801l4.8008 10.801 34.801-13.199v6l178.8 2.3984v-24l-132-2.3984 75.602-28.801 315.6 4.8008 2.3984-123.6 85.199-31.199zm-120-758.4 37.199-14.398 142.8 382.8-37.199 14.398zm183.6 759.6-39.602-1.1992 4.8008-354 39.602-14.398z"/>
</svg>
